<?xml version="1.0" standalone="no"?>
<!DOCTYPE svg PUBLIC "-//W3C//DTD SVG 20010904//EN"
 "http://www.w3.org/TR/2001/REC-SVG-20010904/DTD/svg10.dtd">
<svg version="1.0" xmlns="http://www.w3.org/2000/svg"
 width="70.000000pt" height="70.000000pt" viewBox="0 0 70.000000 70.000000"
 preserveAspectRatio="xMidYMid meet">
<metadata>
Created by potrace 1.14, written by Peter Selinger 2001-2017
</metadata>
<g transform="translate(0.000000,70.000000) scale(0.100000,-0.100000)"
fill="#000000" stroke="none">
<path d="M185 580 c-17 -11 -39 -37 -50 -59 -11 -21 -32 -62 -47 -89 -15 -28
-29 -64 -31 -81 -3 -16 -8 -34 -11 -40 -3 -5 2 -17 11 -27 10 -10 18 -25 18
-33 0 -21 14 -42 24 -36 8 4 16 -37 27 -145 8 -71 7 -70 78 -70 69 0 75 3 78
44 2 21 6 25 22 20 39 -13 97 -11 111 2 7 8 16 10 19 5 8 -12 56 -20 56 -10 0
5 -8 9 -18 9 -29 0 -55 35 -48 64 12 50 96 66 128 25 27 -32 22 -39 -27 -39
-25 0 -45 -4 -45 -10 0 -10 18 -14 59 -10 33 3 22 -24 -12 -28 -15 -2 -27 -7
-27 -11 0 -5 15 -5 32 -2 83 17 46 150 -37 135 -26 -5 -55 -6 -132 -4 -62 1
-83 13 -43 23 14 4 20 14 20 35 0 16 6 32 13 35 9 3 14 25 15 62 1 55 -1 60
-36 94 -21 20 -53 47 -71 61 -23 18 -33 34 -35 57 -3 43 -7 45 -41 23z m29
-53 c7 -19 30 -44 49 -56 48 -29 87 -77 87 -106 0 -29 -12 -33 -79 -28 -108 8
-179 61 -150 114 10 20 11 20 33 -4 22 -24 92 -54 103 -44 3 3 -17 17 -45 31
-27 14 -52 33 -56 42 -10 27 13 84 35 84 5 0 15 -15 23 -33z m-22 -196 c24 -7
66 -13 95 -15 54 -2 87 -16 40 -16 -15 0 -27 -4 -27 -10 0 -5 5 -10 11 -10 6
0 9 -10 7 -22 -3 -22 -8 -23 -98 -25 -112 -1 -129 2 -126 25 2 14 17 17 95 20
128 4 107 22 -27 23 -84 0 -102 3 -84 11 12 6 22 15 22 20 0 5 -4 6 -10 3 -11
-7 -14 24 -4 48 4 11 12 8 34 -13 16 -15 48 -33 72 -39z m-12 -126 c-7 -8 -17
-12 -23 -8 -6 4 -3 9 9 14 27 11 28 11 14 -6z m90 4 c0 -13 -28 -18 -33 -6 -3
7 3 13 14 13 11 0 19 -3 19 -7z m-40 -29 c0 -4 -6 -13 -14 -19 -18 -15 -41 10
-25 26 12 12 39 7 39 -7z m178 -30 c-1 -19 -9 -32 -20 -36 -25 -7 -38 3 -31
24 6 15 5 15 -10 3 -23 -19 -4 -41 34 -41 19 0 29 -5 29 -14 0 -18 -54 -25
-94 -12 -26 8 -28 11 -22 49 9 56 11 57 67 57 49 0 49 0 47 -30z m-224 -21
c-7 -13 -31 -11 -40 2 -9 16 18 30 33 17 7 -6 10 -14 7 -19z m76 11 c0 -21
-15 -27 -25 -10 -7 12 2 30 16 30 5 0 9 -9 9 -20z m-35 -40 c0 -18 -16 -22
-35 -10 -13 9 -13 11 0 20 19 12 35 8 35 -10z m-47 -29 c11 -7 11 -9 -1 -14
-16 -6 -27 0 -27 15 0 10 11 10 28 -1z m82 1 c0 -13 -12 -22 -22 -16 -10 6 -1
24 13 24 5 0 9 -4 9 -8z m-4 -44 c3 -4 -21 -8 -53 -8 -41 0 -54 3 -43 10 18
11 89 10 96 -2z"/>
<path d="M370 140 c0 -5 4 -10 9 -10 6 0 13 5 16 10 3 6 -1 10 -9 10 -9 0 -16
-4 -16 -10z"/>
<path d="M491 151 c-10 -6 -9 -10 3 -14 8 -3 18 -2 21 3 8 13 -9 20 -24 11z"/>
</g>
</svg>
