<svg version="1.0" xmlns="http://www.w3.org/2000/svg" width="93.333" height="93.333" viewBox="0 0 70 70"><path d="M18.5 12c-1.7 1.1-3.9 3.7-5 5.9-1.1 2.1-3.2 6.2-4.7 8.9-1.5 2.8-2.9 6.4-3.1 8.1-.3 1.6-.8 3.4-1.1 4-.3.5.2 1.7 1.1 2.7 1 1 1.8 2.5 1.8 3.3 0 2.1 1.4 4.2 2.4 3.6.8-.4 1.6 3.7 2.7 14.5.8 7.1.7 7 7.8 7 6.9 0 7.5-.3 7.8-4.4.2-2.1.6-2.5 2.2-2 3.9 1.3 9.7 1.1 11.1-.2.7-.8 1.6-1 1.9-.5.8 1.2 5.6 2 5.6 1 0-.5-.8-.9-1.8-.9-2.9 0-5.5-3.5-4.8-6.4 1.2-5 9.6-6.6 12.8-2.5 2.7 3.2 2.2 3.9-2.7 3.9-2.5 0-4.5.4-4.5 1 0 1 1.8 1.4 5.9 1 3.3-.3 2.2 2.4-1.2 2.8-1.5.2-2.7.7-2.7 1.1 0 .5 1.5.5 3.2.2 8.3-1.7 4.6-15-3.7-13.5-2.6.5-5.5.6-13.2.4-6.2-.1-8.3-1.3-4.3-2.3 1.4-.4 2-1.4 2-3.5 0-1.6.6-3.2 1.3-3.5.9-.3 1.4-2.5 1.5-6.2.1-5.5-.1-6-3.6-9.4-2.1-2-5.3-4.7-7.1-6.1-2.3-1.8-3.3-3.4-3.5-5.7-.3-4.3-.7-4.5-4.1-2.3zm2.9 5.3c.7 1.9 3 4.4 4.9 5.6 4.8 2.9 8.7 7.7 8.7 10.6 0 2.9-1.2 3.3-7.9 2.8-10.8-.8-17.9-6.1-15-11.4 1-2 1.1-2 3.3.4 2.2 2.4 9.2 5.4 10.3 4.4.3-.3-1.7-1.7-4.5-3.1-2.7-1.4-5.2-3.3-5.6-4.2-1-2.7 1.3-8.4 3.5-8.4.5 0 1.5 1.5 2.3 3.3zm-2.2 19.6c2.4.7 6.6 1.3 9.5 1.5 5.4.2 8.7 1.6 4 1.6-1.5 0-2.7.4-2.7 1 0 .5.5 1 1.1 1 .6 0 .9 1 .7 2.2-.3 2.2-.8 2.3-9.8 2.5-11.2.1-12.9-.2-12.6-2.5.2-1.4 1.7-1.7 9.5-2 12.8-.4 10.7-2.2-2.7-2.3-8.4 0-10.2-.3-8.4-1.1 1.2-.6 2.2-1.5 2.2-2s-.4-.6-1-.3c-1.1.7-1.4-2.4-.4-4.8.4-1.1 1.2-.8 3.4 1.3 1.6 1.5 4.8 3.3 7.2 3.9zM18 49.5c-.7.8-1.7 1.2-2.3.8-.6-.4-.3-.9.9-1.4 2.7-1.1 2.8-1.1 1.4.6zm9-.4c0 1.3-2.8 1.8-3.3.6-.3-.7.3-1.3 1.4-1.3 1.1 0 1.9.3 1.9.7zM23 52c0 .4-.6 1.3-1.4 1.9-1.8 1.5-4.1-1-2.5-2.6 1.2-1.2 3.9-.7 3.9.7zm17.8 3c-.1 1.9-.9 3.2-2 3.6-2.5.7-3.8-.3-3.1-2.4.6-1.5.5-1.5-1-.3-2.3 1.9-.4 4.1 3.4 4.1 1.9 0 2.9.5 2.9 1.4 0 1.8-5.4 2.5-9.4 1.2-2.6-.8-2.8-1.1-2.2-4.9.9-5.6 1.1-5.7 6.7-5.7 4.9 0 4.9 0 4.7 3zm-22.4 2.1c-.7 1.3-3.1 1.1-4-.2-.9-1.6 1.8-3 3.3-1.7.7.6 1 1.4.7 1.9zM26 56c0 2.1-1.5 2.7-2.5 1-.7-1.2.2-3 1.6-3 .5 0 .9.9.9 2zm-3.5 4c0 1.8-1.6 2.2-3.5 1-1.3-.9-1.3-1.1 0-2 1.9-1.2 3.5-.8 3.5 1zm-4.7 2.9c1.1.7 1.1.9-.1 1.4-1.6.6-2.7 0-2.7-1.5 0-1 1.1-1 2.8.1zm8.2-.1c0 1.3-1.2 2.2-2.2 1.6-1-.6-.1-2.4 1.3-2.4.5 0 .9.4.9.8zm-.4 4.4c.3.4-2.1.8-5.3.8-4.1 0-5.4-.3-4.3-1 1.8-1.1 8.9-1 9.6.2z"/><path d="M37 56c0 .5.4 1 .9 1 .6 0 1.3-.5 1.6-1 .3-.6-.1-1-.9-1-.9 0-1.6.4-1.6 1zM49.1 54.9c-1 .6-.9 1 .3 1.4.8.3 1.8.2 2.1-.3.8-1.3-.9-2-2.4-1.1z"/></svg>